<?xml version="1.0" encoding="utf-8"?>
<!-- Generator: Adobe Illustrator 18.1.1, SVG Export Plug-In . SVG Version: 6.00 Build 0)  -->
<svg version="1.1" xmlns="http://www.w3.org/2000/svg" xmlns:xlink="http://www.w3.org/1999/xlink" x="0px" y="0px"
	 viewBox="0 0 200 100" enable-background="new 0 0 200 100" xml:space="preserve">
<symbol  id="Button_4_-_Grey" viewBox="-72.5 -16.5 145 33">
	<g>
		<g>
			<linearGradient id="SVGID_1_" gradientUnits="userSpaceOnUse" x1="-6.903065e-10" y1="-15.3731" x2="7.463845e-10" y2="16.6269">
				<stop  offset="0" style="stop-color:#FFFFFF"/>
				<stop  offset="1" style="stop-color:#B1BFC7"/>
			</linearGradient>
			<path fill="url(#SVGID_1_)" d="M-56-16c-8.8,0-16,7.2-16,16s7.2,16,16,16H56c8.8,0,16-7.2,16-16s-7.2-16-16-16H-56z"/>
			<path fill="#8C98A0" d="M56,15.5c8.5,0,15.5-7,15.5-15.5s-7-15.5-15.5-15.5H-56c-8.5,0-15.5,7-15.5,15.5s7,15.5,15.5,15.5H56
				 M56,16.5H-56c-9.1,0-16.5-7.4-16.5-16.5c0-9.1,7.4-16.5,16.5-16.5H56c9.1,0,16.5,7.4,16.5,16.5C72.5,9.1,65.1,16.5,56,16.5
				L56,16.5z"/>
		</g>
	</g>
	<g>
		<linearGradient id="SVGID_2_" gradientUnits="userSpaceOnUse" x1="-5.000005e-04" y1="17.9678" x2="-4.999995e-04" y2="-5.0322">
			<stop  offset="0" style="stop-color:#FFFBD4"/>
			<stop  offset="1" style="stop-color:#000000"/>
		</linearGradient>
		<path fill="url(#SVGID_2_)" d="M65.6,6.1c0-4.3-4.5-7.9-10-7.9H-55.6c-5.5,0-10,3.5-10,7.9c0,4.3,4.5,7.9,10,7.9H55.6
			C61.1,13.9,65.6,10.4,65.6,6.1z"/>
	</g>
</symbol>
<g id="Layer_1">
	<g>
		
			<use xlink:href="#Button_4_-_Grey"  width="145" height="33" x="-72.5" y="-16.5" transform="matrix(1.1604 0 0 -1.1604 97.4884 48.3099)" overflow="visible"/>
		
			<use xlink:href="#Button_4_-_Grey"  width="145" height="33" x="-72.5" y="-16.5" transform="matrix(1.1604 0 0 -1.1604 97.4884 48.3099)" overflow="visible" opacity="0.31"/>
		<g opacity="0.9">
			<g>
				<g>
					<path fill="#E87B19" d="M32.5,66.9c-10.2,0-18.6-8.3-18.6-18.6s8.3-18.6,18.6-18.6h130c10.2,0,18.6,8.3,18.6,18.6
						s-8.3,18.6-18.6,18.6H32.5z"/>
					<path fill="#E87B19" d="M162.5,30.3c9.9,0,18,8.1,18,18s-8.1,18-18,18h-130c-9.9,0-18-8.1-18-18s8.1-18,18-18H162.5
						 M162.5,29.2h-130c-10.6,0-19.1,8.6-19.1,19.1c0,10.6,8.6,19.1,19.1,19.1h130c10.6,0,19.1-8.6,19.1-19.1
						C181.6,37.7,173.1,29.2,162.5,29.2L162.5,29.2z"/>
				</g>
			</g>
			<g>
				<path fill="#E87B19" d="M173.6,41.3c0,5-5.2,9.1-11.6,9.1H33c-6.4,0-11.6-4.1-11.6-9.1c0-5,5.2-9.1,11.6-9.1h129
					C168.4,32.2,173.6,36.3,173.6,41.3z"/>
			</g>
		</g>
	</g>
	<g>
		
			<text transform="matrix(0.9997 2.341839e-02 -2.341839e-02 0.9997 57.7596 58.5728)" stroke="#000000" stroke-width="0.2" font-family="'Noteworthy-Bold'" font-size="27">Crown</text>
	</g>
</g>
<g id="Layer_2">
</g>
</svg>
